# xmcd
#
# Track frame offsets: 
#        150
#        23887
#        43230
#        61500
#        84580
#        112045
#        133682
#        154110
#
# Disc length: 2332 seconds
#
# Revision: 6
# Processed by: cddbd v1.5.2PL0 Copyright (c) Steve Scherf et al.
# Submitted via: ExactAudioCopy v1.0b3
#
DISCID=63091a08
DTITLE=RCサクセション - BLUE (紙ジャケット仕様) Remastering UPCY-9150
DYEAR=1987
DGENRE=JPop
TTITLE0=ロックン・ロール・ショー
TTITLE1=Johnny Blue
TTITLE2=多摩蘭坂
TTITLE3=ガ・ガ・ガ・ガ・ガ
TTITLE4=まぼろし
TTITLE5=チャンスは今夜
TTITLE6=よそ者
TTITLE7=あの娘のレター
EXTD=
EXTT0=
EXTT1=
EXTT2=
EXTT3=
EXTT4=
EXTT5=
EXTT6=
EXTT7=
PLAYORDER=
